<svg width="24" height="24" viewBox="0 0 24 24" fill="none" xmlns="http://www.w3.org/2000/svg">
<path d="M19 20H4C2.89 20 2 19.1 2 18V6.00002C2 4.89002 2.89 4.00002 4 4.00002H10L12 6.00002H19C19.5304 6.00002 20.0391 6.21073 20.4142 6.5858C20.7893 6.96087 21 7.46958 21 8.00001H4V18L6.14 10H23.21L20.93 18.5C20.7 19.37 19.92 20 19 20Z" fill="#546E7A"/>
<g clip-path="url(#clip0)">
<path d="M15.3307 14.9132L12.8791 9.47537H10.32L13.9904 17.7352C13.994 17.7432 13.9998 17.7499 14.0071 17.7546C14.0144 17.7593 14.023 17.7618 14.0317 17.7618C14.0404 17.7618 14.0489 17.7593 14.0563 17.7546C14.0636 17.7499 14.0694 17.7432 14.073 17.7352L15.3307 14.9132ZM20.6756 9.47537C20.6756 9.47537 17.3557 16.9641 16.9404 17.8805C15.9479 20.0707 15.2124 20.6183 14.4629 20.7365C14.4592 20.7368 14.4557 20.7386 14.4533 20.7414C14.4508 20.7442 14.4496 20.7479 14.4499 20.7517C14.4502 20.7554 14.452 20.7588 14.4548 20.7613C14.4576 20.7637 14.4613 20.7649 14.465 20.7646H16.8086C17.8406 20.7646 18.5469 20.0707 19.541 17.8805C19.8888 17.1148 23.28 9.47537 23.28 9.47537H20.6756Z" fill="#ECEFF1"/>
</g>
<defs>
<clipPath id="clip0">
<rect width="12.96" height="12.96" fill="white" transform="translate(10.32 8.64)"/>
</clipPath>
</defs>
</svg>
