<svg width="24" height="24" viewBox="0 0 24 24" fill="none" xmlns="http://www.w3.org/2000/svg">
<path d="M19 20H4C2.89 20 2 19.1 2 18V6C2 4.89 2.89 4 4 4H10L12 6H19C19.5304 6 20.0391 6.21071 20.4142 6.58579C20.7893 6.96086 21 7.46957 21 8H4V18L6.14 10H23.21L20.93 18.5C20.7 19.37 19.92 20 19 20Z" fill="#039BE5"/>
<path fill-rule="evenodd" clip-rule="evenodd" d="M24 14.88C24 18.1937 21.3137 20.88 18 20.88C14.6863 20.88 12 18.1937 12 14.88V8.88H18C21.3137 8.88 24 11.5663 24 14.88ZM18.0187 15.8925C18.5883 15.8925 19.05 15.4308 19.05 14.8613C19.05 14.2917 18.5883 13.83 18.0187 13.83C17.4492 13.83 16.9875 14.2917 16.9875 14.8613C16.9875 15.4308 17.4492 15.8925 18.0187 15.8925Z" fill="#E1F5FE"/>
</svg>
