<svg width="24" height="24" viewBox="0 0 24 24" fill="none" xmlns="http://www.w3.org/2000/svg">
<path d="M10 4H4C2.89 4 2 4.89 2 6V18C2 18.5304 2.21071 19.0391 2.58579 19.4142C2.96086 19.7893 3.46957 20 4 20H20C20.5304 20 21.0391 19.7893 21.4142 19.4142C21.7893 19.0391 22 18.5304 22 18V8C22 6.89 21.1 6 20 6H12L10 4Z" fill="#039BE5"/>
<path fill-rule="evenodd" clip-rule="evenodd" d="M24 14.88C24 18.1937 21.3137 20.88 18 20.88C14.6863 20.88 12 18.1937 12 14.88V8.88H18C21.3137 8.88 24 11.5663 24 14.88ZM18.0187 15.8925C18.5883 15.8925 19.05 15.4308 19.05 14.8613C19.05 14.2917 18.5883 13.83 18.0187 13.83C17.4492 13.83 16.9875 14.2917 16.9875 14.8613C16.9875 15.4308 17.4492 15.8925 18.0187 15.8925Z" fill="#E1F5FE"/>
</svg>
